# AST/ASF file generated using VICON BodyLanguage
# -----------------------------------------------
:version 1.10
:name VICON
:units
  mass 1.0
  length 0.45
  angle deg
:documentation
   .ast/.asf automatically generated from VICON data using
   VICON BodyBuilder and BodyLanguage model FoxedUp or BRILLIANT.MOD
:root
   order TX TY TZ RX RY RZ
   axis XYZ
   position 0 0 0  
   orientation 0 0 0 
:bonedata
  begin
     id 1 
     name lhipjoint
     direction 0.558404 -0.748506 0.357664 
     length 2.4234 
     axis 0 0 0  XYZ
  end
  begin
     id 2 
     name lfemur
     direction 0.34202 -0.939693 0  
     length 7.14567  
     axis 0 0 20  XYZ
    dof rx ry rz
    limits (-160.0 20.0)
           (-70.0 70.0)
           (-60.0 70.0)
  end
  begin
     id 3 
     name ltibia
     direction 0.34202 -0.939693 0   
     length 8.13956   
     axis 0 0 20   XYZ
    dof rx
    limits (-10.0 170.0)
  end
  begin
     id 4 
     name lfoot
     direction 0.0791314 -0.217412 0.972867   
     length 2.00134   
     axis -90 7.62852e-016 20   XYZ
    dof rx rz
    limits (-45.0 90.0)
           (-70.0 20.0)
  end
  begin
     id 5 
     name ltoes
     direction 1.53547e-011 -4.21922e-011 1   
     length 1.00735   
     axis -90 7.62852e-016 20   XYZ
    dof rx
    limits (-90.0 20.0)
  end
  begin
     id 6 
     name rhipjoint
     direction -0.496392 -0.78327 0.374276   
     length 2.31584  
     axis 0 0 0  XYZ 
  end
  begin
     id 7 
     name rfemur
     direction -0.34202 -0.939693 0   
     length 7.47417   
     axis 0 0 -20   XYZ
    dof rx ry rz
    limits (-160.0 20.0)
           (-70.0 70.0)
           (-70.0 60.0)
  end
  begin
     id 8 
     name rtibia
     direction -0.34202 -0.939693 0   
     length 7.69071   
     axis 0 0 -20   XYZ
    dof rx
    limits (-10.0 170.0)
 end
 begin
     id 9 
     name rfoot
     direction -0.103069 -0.28318 0.953512   
     length 2.16135  
     axis -90 -7.62852e-016 -20   XYZ
    dof rx rz
    limits (-45.0 90.0)
           (-20.0 70.0)
  end
  begin
     id 10 
     name rtoes
     direction -1.53581e-011 -4.21904e-011 1   
     length 1.07867   
     axis -90 -7.62852e-016 -20   XYZ
    dof rx
    limits (-90.0 20.0)
  end
  begin
     id 11 
     name lowerback
     direction -0.0258961 0.994776 -0.0987407   
     length 2.19412   
     axis 0 0 0   XYZ
    dof rx ry rz
    limits (-20.0 45.0)
           (-30.0 30.0)
           (-30.0 30.0)
  end
  begin
     id 12 
     name upperback
     direction 0.0402454 0.999185 0.00320666   
     length 2.18445   
     axis 0 0 0   XYZ
    dof rx ry rz
    limits (-20.0 45.0)
           (-30.0 30.0)
           (-30.0 30.0)
  end
  begin
     id 13 
     name thorax
     direction 0.0519376 0.997415 0.0496558   
     length 2.21487   
     axis 0 0 0   XYZ
    dof rx ry rz
    limits (-20.0 45.0)
           (-30.0 30.0)
           (-30.0 30.0)
  end
  begin
     id 14 
     name lowerneck
     direction -0.0921276 0.983211 0.157506   
     length 1.61201   
     axis 0 0 0   XYZ
    dof rx ry rz
    limits (-20.0 45.0)
           (-30.0 30.0)
           (-30.0 30.0)
  end
  begin
     id 15 
     name upperneck
     direction 0.0820814 0.98162 -0.172292   
     length 1.65275   
     axis 0 0 0   XYZ
    dof rx ry rz
    limits (-20.0 45.0)
           (-30.0 30.0)
           (-30.0 30.0)
  end
  begin
     id 16
     name head
     direction 0.0336554 0.996413 -0.0776455  
     length 1.66415  
     axis 0 0 0   XYZ
    dof rx ry rz
    limits (-20.0 45.0)
           (-30.0 30.0)
           (-30.0 30.0)
  end
  begin
     id 17 
     name lclavicle
     direction 0.94696 0.284418 -0.149576  
     length 3.41447  
     axis 0 0 0   XYZ
    dof ry rz
    limits (-20.0 10.0)
           (0.0 20.0)
  end
  begin
     id 18 
     name lhumerus
     direction 1 -0.000130264 -9.81312e-005   
     length 5.19964   
     axis 180 -30 -90   XYZ
    dof rx ry rz
    limits (-60.0 90.0)
           (-90.0 90.0)
           (-90.0 90.0)
  end
  begin
     id 19
     name lradius
     direction 1 -4.48961e-011 1.43854e-026   
     length 3.32189   
     axis 180 -30 -90   XYZ
    dof rx
    limits (-10.0 170.0)
  end
  begin
     id 20
     name lwrist
     direction 1 -4.48958e-011 3.1502e-026   
     length 1.66095   
     axis -1.97692e-014 90 90   XYZ
    dof ry
    limits (-180.0 0.0)
 end
  begin
     id 21 
     name lhand
     direction 1 -4.48927e-011 6.3004e-026   
     length 0.645616   
     axis -4.02019e-014 90 90   XYZ
    dof rx rz
    limits (-90.0 90.0)
           (-45.0 45.0)
  end
  begin
     id 22 
     name lfingers
     direction 1 -4.4904e-011 1.26008e-025   
     length 0.520512   
     axis -8.04039e-014 90 90   XYZ
    dof rx
    limits (0.0 90.0)
  end
  begin
     id 23
     name lthumb
     direction 0.707107 -6.34947e-011 0.707107   
     length 0.747354   
     axis -90 45 2.85299e-015   XYZ
    dof rx rz
    limits (-45.0 45.0)
           (-45.0 45.0)
  end
  begin
     id 24 
     name rclavicle
     direction -0.909391 0.383475 -0.161107   
     length 3.25176  
     axis 0 0 0   XYZ 
    dof ry rz
    limits (-10.0 20.0)
           (-20.0 0.0)
  end
  begin
     id 25 
     name rhumerus
     direction -1 -4.48965e-011 -1.81384e-027  
     length 5.6595   
     axis 180 30 90   XYZ
    dof rx ry rz
    limits (-90.0 60.0)
           (-90.0 90.0)
           (-90.0 90.0)
  end
  begin
     id 26 
     name rradius
     direction -1 -4.48996e-011 -8.09397e-027   
     length 3.37604   
     axis 180 30 90   XYZ
    dof rx
    limits (-10.0 170.0)
  end
  begin
     id 27 
     name rwrist
     direction -1 -4.48927e-011 -1.56669e-026   
     length 1.68802   
     axis 1.21142e-014 -90 -90   XYZ
    dof ry
    limits (-180.0 0.0)
  end
  begin
     id 28
     name rhand
     direction -1 -4.48912e-011 -3.13339e-026   
     length 0.824702   
     axis 1.99937e-014 -90 -90   XYZ
    dof rx rz
    limits (-90.0 90.0)
           (-45.0 45.0)
  end
  begin
     id 29
     name rfingers
     direction -1 -4.49011e-011 -6.26677e-026   
     length 0.664896   
     axis 3.99874e-014 -90 -90   XYZ
    dof rx
    limits (0.0 90.0)
  end
  begin
     id 30
     name rthumb
     direction -0.707107 -6.34931e-011 0.707107   
     length 0.954662   
     axis -90 -45 -2.85299e-015   XYZ
    dof rx rz
    limits (-45.0 45.0)
           (-45.0 45.0)
  end
:hierarchy
  begin
    root lhipjoint rhipjoint lowerback
    lhipjoint lfemur
    lfemur ltibia
    ltibia lfoot
    lfoot ltoes
    rhipjoint rfemur
    rfemur rtibia
    rtibia rfoot
    rfoot rtoes
    lowerback upperback
    upperback thorax
    thorax lowerneck lclavicle rclavicle
    lowerneck upperneck
    upperneck head
    lclavicle lhumerus
    lhumerus lradius
    lradius lwrist
    lwrist lhand lthumb
    lhand lfingers
    rclavicle rhumerus
    rhumerus rradius
    rradius rwrist
    rwrist rhand rthumb
    rhand rfingers
  end

#!OML:ASF F:\VICON\USERDATA\INSTALL\rory3\rory3.ASF
:FULLY-SPECIFIED
:DEGREES
276
root 9.37337 17.7467 -14.2132 2.98944 -32.7607 -3.77146
lowerback 1.57954 -1.42383 -3.93201
upperback -1.73109 -1.94039 3.83852
thorax -2.41191 -0.868991 6.26879
lowerneck -8.07615 -9.54598 -16.8926
upperneck 21.2501 -13.9373 13.6263
head 10.2681 -6.70707 5.85583
rclavicle -3.86388e-014 3.97569e-016
rhumerus -34.7677 -23.8972 -57.8205
rradius 35.1683
rwrist -12.7263
rhand -11.1436 16.8543
rfingers 7.12502
rthumb 14.8821 -12.5912
lclavicle -3.86388e-014 3.97569e-016
lhumerus -27.7299 17.4373 73.8526
lradius 29.414
lwrist -13.6415
lhand -2.00571 30.6012
lfingers 7.12502
lthumb 23.6679 59.1642
rfemur -13.3974 5.58696 15.5513
rtibia 35.9579
rfoot -18.7911 -9.0844
rtoes 5.81471
lfemur -8.39115 -2.03729 -17.5327
ltibia 34.892
lfoot -24.0094 11.0672
ltoes -1.19501
277
root 9.36977 17.7448 -14.2138 2.68996 -32.2155 -3.36271
lowerback 1.56004 -1.40456 -4.16309
upperback -1.64602 -1.92275 3.6682
thorax -2.31368 -0.86163 6.21794
lowerneck -8.27198 -9.51263 -16.792
upperneck 21.2678 -13.866 13.6089
head 10.2899 -6.65735 5.83745
rclavicle -4.51614e-014 -1.55052e-014
rhumerus -34.3251 -24.2292 -58.0831
rradius 34.9844
rwrist -12.141
rhand -11.0886 17.0968
rfingers 7.12502
rthumb 14.9352 -12.3447
lclavicle -4.51614e-014 -1.55052e-014
lhumerus -28.0967 18.1876 73.4676
lradius 29.6208
lwrist -14.1292
lhand -2.82603 30.2598
lfingers 7.12502
lthumb 22.8809 58.9223
rfemur -13.205 5.1333 15.2011
rtibia 35.9886
rfoot -18.8082 -9.17704
rtoes 5.09268
lfemur -8.3532 -2.19563 -17.8477
ltibia 34.843
lfoot -23.8956 10.811
ltoes -2.00707
278
root 9.36489 17.7437 -14.2141 2.42371 -31.6622 -2.95757
lowerback 1.35404 -1.32357 -4.30023
upperback -1.46161 -1.81495 3.43057
thorax -2.02465 -0.819501 6.03189
lowerneck -8.08774 -9.5573 -16.9493
upperneck 20.8509 -13.9684 13.9937
head 10.1675 -6.68961 5.98767
rclavicle 1.00697e-013 -2.10712e-014
rhumerus -33.9284 -24.4541 -58.4504
rradius 34.9921
rwrist -11.974
rhand -11.3063 17.1149
rfingers 7.12502
rthumb 14.7255 -12.3421
lclavicle 1.00697e-013 -2.10712e-014
lhumerus -28.1732 18.4079 73.3504
lradius 29.7187
lwrist -13.5736
lhand -3.33818 30.1991
lfingers 7.12502
lthumb 22.3894 58.9216
rfemur -13.0356 4.64718 14.8362
rtibia 36.0244
rfoot -18.924 -9.16485
rtoes 5.67414
lfemur -8.34452 -2.2255 -18.1408
ltibia 34.799
lfoot -23.8035 10.3785
ltoes -2.14315
279
root 9.3597 17.7461 -14.2243 2.48795 -31.2849 -2.90901
lowerback 1.11717 -1.15928 -4.29248
upperback -1.41422 -1.58816 3.37819
thorax -1.87458 -0.711699 5.95948
lowerneck -7.3636 -9.4629 -17.4292
upperneck 20.1589 -13.9427 14.6726
head 9.87179 -6.69 6.33692
rclavicle -2.80038e-014 4.37326e-015
rhumerus -33.7181 -23.9908 -58.7418
rradius 35.2224
rwrist -12.508
rhand -11.535 16.9505
rfingers 7.12502
rthumb 14.5051 -12.5225
lclavicle -2.80038e-014 4.37326e-015
lhumerus -28.2412 18.3975 73.3732
lradius 29.6051
lwrist -13.0509
lhand -3.32424 30.0014
lfingers 7.12502
lthumb 22.4028 58.7223
rfemur -13.0776 4.53894 14.832
rtibia 36.0316
rfoot -18.9607 -9.29115
rtoes 6.57159
lfemur -8.53945 -2.07607 -18.063
ltibia 34.7938
lfoot -23.683 9.97661
ltoes -2.49673
280
root 9.35494 17.7473 -14.2356 2.536 -31.0066 -3.0284
lowerback 0.920412 -0.979924 -4.04314
upperback -1.28985 -1.33879 3.27027
thorax -1.67606 -0.599121 5.69116
lowerneck -6.77374 -9.29568 -17.6319
upperneck 19.5168 -13.8187 15.2661
head 9.57376 -6.6276 6.61979
rclavicle -1.82764e-013 2.8625e-014
rhumerus -33.4211 -23.8149 -59.2209
rradius 35.3768
rwrist -12.7926
rhand -11.5737 16.9211
rfingers 7.12502
rthumb 14.4678 -12.5546
lclavicle -1.82764e-013 2.8625e-014
lhumerus -27.8605 18.2405 73.1975
lradius 29.2102
lwrist -13.247
lhand -3.29449 29.674
lfingers 7.12502
lthumb 22.4313 58.3914
rfemur -13.0136 4.58232 15.0107
rtibia 35.9835
rfoot -18.9321 -9.55917
rtoes 6.52521
lfemur -8.64554 -2.06106 -17.8683
ltibia 34.8555
lfoot -23.637 9.752
ltoes -2.60772
281
root 9.3502 17.7466 -14.2391 2.50638 -30.5356 -3.1888
lowerback 0.616389 -0.842865 -3.47929
upperback -1.05144 -1.14157 3.03824
thorax -1.29824 -0.522687 5.11264
lowerneck -6.4727 -9.19601 -17.6776
upperneck 19.0901 -13.7453 15.6588
head 9.3887 -6.58039 6.78656
rclavicle -3.18304e-014 -9.93923e-015
rhumerus -33.1203 -24.3242 -59.6624
rradius 35.4366
rwrist -12.5608
rhand -11.5323 16.8317
rfingers 7.12502
rthumb 14.5076 -12.6411
lclavicle -3.18304e-014 -9.93923e-015
lhumerus -27.3166 18.1526 72.9036
lradius 28.8002
lwrist -13.7167
lhand -3.24213 29.4584
lfingers 7.12502
lthumb 22.4816 58.1698
rfemur -12.7688 4.37021 15.2376
rtibia 35.891
rfoot -18.9612 -9.86403
rtoes 6.5523
lfemur -8.6792 -2.22432 -17.6353
ltibia 34.9704
lfoot -23.628 9.40547
ltoes -2.24827
282
root 9.34705 17.746 -14.2359 2.6136 -30.0732 -3.52432
lowerback 0.373242 -0.686091 -2.77861
upperback -0.922611 -0.921137 2.89521
thorax -1.06611 -0.426924 4.55616
lowerneck -6.45109 -9.19141 -17.5833
upperneck 19.0119 -13.7448 15.6848
head 9.3522 -6.5714 6.77971
rclavicle 5.36222e-014 1.13307e-014
rhumerus -32.9468 -24.8842 -59.8243
rradius 35.4086
rwrist -12.1493
rhand -11.2949 16.766
rfingers 7.12502
rthumb 14.7364 -12.6902
lclavicle 5.36222e-014 1.13307e-014
lhumerus -27.2814 17.9425 72.7263
lradius 28.7709
lwrist -13.5444
lhand -3.06519 29.735
lfingers 7.12502
lthumb 22.6514 58.4258
rfemur -12.5338 4.17147 15.6003
rtibia 35.7793
rfoot -19.0659 -10.1117
rtoes 7.15568
lfemur -8.73309 -2.40826 -17.2635
ltibia 35.0936
lfoot -23.6525 9.21388
ltoes -2.53481
